<mxfile host="Electron" modified="2023-08-07T08:50:40.595Z" agent="Mozilla/5.0 (Windows NT 10.0; Win64; x64) AppleWebKit/537.36 (KHTML, like Gecko) draw.io/21.6.5 Chrome/114.0.5735.243 Electron/25.3.1 Safari/537.36" etag="bYxOtUKDEADGO3p_OFur" version="21.6.5" type="device">
  <diagram name="第 1 页" id="E-6lQGOfXXS8ebYrHA-V">
    <mxGraphModel dx="819" dy="478" grid="0" gridSize="10" guides="1" tooltips="1" connect="1" arrows="1" fold="1" page="1" pageScale="1" pageWidth="827" pageHeight="1169" math="0" shadow="0">
      <root>
        <mxCell id="0" />
        <mxCell id="1" parent="0" />
        <mxCell id="gl1NoAwUrYVEBVzrNiRo-18" style="edgeStyle=orthogonalEdgeStyle;rounded=0;orthogonalLoop=1;jettySize=auto;html=1;exitX=0.5;exitY=1;exitDx=0;exitDy=0;entryX=0.5;entryY=0;entryDx=0;entryDy=0;" edge="1" parent="1" source="gl1NoAwUrYVEBVzrNiRo-1" target="gl1NoAwUrYVEBVzrNiRo-5">
          <mxGeometry relative="1" as="geometry" />
        </mxCell>
        <mxCell id="gl1NoAwUrYVEBVzrNiRo-1" value="" style="verticalLabelPosition=bottom;verticalAlign=top;html=1;shape=process;whiteSpace=wrap;rounded=1;size=0.14;arcSize=6;fillColor=#dae8fc;strokeColor=#6c8ebf;" vertex="1" parent="1">
          <mxGeometry x="76" y="725" width="135" height="43" as="geometry" />
        </mxCell>
        <mxCell id="gl1NoAwUrYVEBVzrNiRo-17" style="edgeStyle=orthogonalEdgeStyle;rounded=0;orthogonalLoop=1;jettySize=auto;html=1;exitX=0.5;exitY=1;exitDx=0;exitDy=0;exitPerimeter=0;entryX=0.5;entryY=0;entryDx=0;entryDy=0;" edge="1" parent="1" source="gl1NoAwUrYVEBVzrNiRo-2" target="gl1NoAwUrYVEBVzrNiRo-1">
          <mxGeometry relative="1" as="geometry" />
        </mxCell>
        <mxCell id="gl1NoAwUrYVEBVzrNiRo-2" value="start" style="strokeWidth=2;html=1;shape=mxgraph.flowchart.start_2;whiteSpace=wrap;fillColor=#f8cecc;strokeColor=#b85450;" vertex="1" parent="1">
          <mxGeometry x="119" y="640" width="50" height="50" as="geometry" />
        </mxCell>
        <mxCell id="gl1NoAwUrYVEBVzrNiRo-3" value="f2fs_fill_super" style="text;html=1;strokeColor=none;fillColor=none;align=center;verticalAlign=middle;whiteSpace=wrap;rounded=0;" vertex="1" parent="1">
          <mxGeometry x="113.5" y="731.5" width="60" height="30" as="geometry" />
        </mxCell>
        <mxCell id="gl1NoAwUrYVEBVzrNiRo-19" style="edgeStyle=orthogonalEdgeStyle;rounded=0;orthogonalLoop=1;jettySize=auto;html=1;exitX=0.5;exitY=1;exitDx=0;exitDy=0;entryX=0.5;entryY=0;entryDx=0;entryDy=0;entryPerimeter=0;" edge="1" parent="1" source="gl1NoAwUrYVEBVzrNiRo-4" target="gl1NoAwUrYVEBVzrNiRo-6">
          <mxGeometry relative="1" as="geometry" />
        </mxCell>
        <mxCell id="gl1NoAwUrYVEBVzrNiRo-4" value="" style="verticalLabelPosition=bottom;verticalAlign=top;html=1;shape=process;whiteSpace=wrap;rounded=1;size=0.14;arcSize=6;fillColor=#dae8fc;strokeColor=#6c8ebf;" vertex="1" parent="1">
          <mxGeometry x="39" y="807" width="210" height="40" as="geometry" />
        </mxCell>
        <mxCell id="gl1NoAwUrYVEBVzrNiRo-5" value="f2fs_fill_super_by_fsck_info" style="text;html=1;strokeColor=none;fillColor=none;align=center;verticalAlign=middle;whiteSpace=wrap;rounded=0;" vertex="1" parent="1">
          <mxGeometry x="114" y="810" width="60" height="30" as="geometry" />
        </mxCell>
        <mxCell id="gl1NoAwUrYVEBVzrNiRo-20" style="edgeStyle=orthogonalEdgeStyle;rounded=0;orthogonalLoop=1;jettySize=auto;html=1;exitX=0.5;exitY=1;exitDx=0;exitDy=0;exitPerimeter=0;entryX=0.5;entryY=0;entryDx=0;entryDy=0;" edge="1" parent="1" source="gl1NoAwUrYVEBVzrNiRo-6" target="gl1NoAwUrYVEBVzrNiRo-11">
          <mxGeometry relative="1" as="geometry" />
        </mxCell>
        <mxCell id="gl1NoAwUrYVEBVzrNiRo-22" style="edgeStyle=orthogonalEdgeStyle;rounded=0;orthogonalLoop=1;jettySize=auto;html=1;exitX=1;exitY=0.5;exitDx=0;exitDy=0;exitPerimeter=0;entryX=0;entryY=0.5;entryDx=0;entryDy=0;" edge="1" parent="1" source="gl1NoAwUrYVEBVzrNiRo-6" target="gl1NoAwUrYVEBVzrNiRo-8">
          <mxGeometry relative="1" as="geometry">
            <Array as="points">
              <mxPoint x="270" y="900" />
              <mxPoint x="270" y="747" />
            </Array>
          </mxGeometry>
        </mxCell>
        <mxCell id="gl1NoAwUrYVEBVzrNiRo-6" value="&lt;font style=&quot;font-size: 8px;&quot;&gt;fsck-info模块存在？&lt;/font&gt;" style="strokeWidth=2;html=1;shape=mxgraph.flowchart.decision;whiteSpace=wrap;fillColor=#e1d5e7;strokeColor=#9673a6;" vertex="1" parent="1">
          <mxGeometry x="93.5" y="880" width="100" height="40" as="geometry" />
        </mxCell>
        <mxCell id="gl1NoAwUrYVEBVzrNiRo-7" value="结束" style="strokeWidth=2;html=1;shape=mxgraph.flowchart.terminator;whiteSpace=wrap;fillColor=#f8cecc;strokeColor=#b85450;" vertex="1" parent="1">
          <mxGeometry x="110.16" y="1010" width="66.67" height="40" as="geometry" />
        </mxCell>
        <mxCell id="gl1NoAwUrYVEBVzrNiRo-23" style="edgeStyle=orthogonalEdgeStyle;rounded=0;orthogonalLoop=1;jettySize=auto;html=1;exitX=0.5;exitY=1;exitDx=0;exitDy=0;entryX=0.5;entryY=0;entryDx=0;entryDy=0;" edge="1" parent="1" source="gl1NoAwUrYVEBVzrNiRo-8" target="gl1NoAwUrYVEBVzrNiRo-15">
          <mxGeometry relative="1" as="geometry" />
        </mxCell>
        <mxCell id="gl1NoAwUrYVEBVzrNiRo-8" value="" style="verticalLabelPosition=bottom;verticalAlign=top;html=1;shape=process;whiteSpace=wrap;rounded=1;size=0.14;arcSize=6;fillColor=#d5e8d4;strokeColor=#82b366;" vertex="1" parent="1">
          <mxGeometry x="319" y="725" width="140" height="45" as="geometry" />
        </mxCell>
        <mxCell id="gl1NoAwUrYVEBVzrNiRo-9" value="f2fs_mount_by_file" style="text;html=1;strokeColor=none;fillColor=none;align=center;verticalAlign=middle;whiteSpace=wrap;rounded=0;" vertex="1" parent="1">
          <mxGeometry x="359" y="732.5" width="60" height="30" as="geometry" />
        </mxCell>
        <mxCell id="gl1NoAwUrYVEBVzrNiRo-26" style="edgeStyle=orthogonalEdgeStyle;rounded=0;orthogonalLoop=1;jettySize=auto;html=1;exitX=0.5;exitY=1;exitDx=0;exitDy=0;entryX=1;entryY=0.5;entryDx=0;entryDy=0;entryPerimeter=0;" edge="1" parent="1" source="gl1NoAwUrYVEBVzrNiRo-10" target="gl1NoAwUrYVEBVzrNiRo-7">
          <mxGeometry relative="1" as="geometry" />
        </mxCell>
        <mxCell id="gl1NoAwUrYVEBVzrNiRo-10" value="" style="verticalLabelPosition=bottom;verticalAlign=top;html=1;shape=process;whiteSpace=wrap;rounded=1;size=0.14;arcSize=6;fillColor=#e1d5e7;strokeColor=#9673a6;" vertex="1" parent="1">
          <mxGeometry x="277" y="940" width="270" height="40" as="geometry" />
        </mxCell>
        <mxCell id="gl1NoAwUrYVEBVzrNiRo-21" style="edgeStyle=orthogonalEdgeStyle;rounded=0;orthogonalLoop=1;jettySize=auto;html=1;exitX=0.5;exitY=1;exitDx=0;exitDy=0;entryX=0.5;entryY=0;entryDx=0;entryDy=0;entryPerimeter=0;" edge="1" parent="1" source="gl1NoAwUrYVEBVzrNiRo-11" target="gl1NoAwUrYVEBVzrNiRo-7">
          <mxGeometry relative="1" as="geometry" />
        </mxCell>
        <mxCell id="gl1NoAwUrYVEBVzrNiRo-11" value="" style="verticalLabelPosition=bottom;verticalAlign=top;html=1;shape=process;whiteSpace=wrap;rounded=1;size=0.14;arcSize=6;fillColor=#dae8fc;strokeColor=#6c8ebf;" vertex="1" parent="1">
          <mxGeometry x="38.5" y="940" width="210" height="40" as="geometry" />
        </mxCell>
        <mxCell id="gl1NoAwUrYVEBVzrNiRo-13" value="read_raw_super_block" style="text;html=1;strokeColor=none;fillColor=none;align=center;verticalAlign=middle;whiteSpace=wrap;rounded=0;" vertex="1" parent="1">
          <mxGeometry x="113.5" y="945" width="60" height="30" as="geometry" />
        </mxCell>
        <mxCell id="gl1NoAwUrYVEBVzrNiRo-14" value="read_raw_super_block_by_fsck_info" style="text;html=1;strokeColor=none;fillColor=none;align=center;verticalAlign=middle;whiteSpace=wrap;rounded=0;" vertex="1" parent="1">
          <mxGeometry x="381" y="945" width="60" height="30" as="geometry" />
        </mxCell>
        <mxCell id="gl1NoAwUrYVEBVzrNiRo-24" style="edgeStyle=orthogonalEdgeStyle;rounded=0;orthogonalLoop=1;jettySize=auto;html=1;exitX=0.5;exitY=1;exitDx=0;exitDy=0;entryX=0.404;entryY=-0.036;entryDx=0;entryDy=0;entryPerimeter=0;" edge="1" parent="1">
          <mxGeometry relative="1" as="geometry">
            <mxPoint x="385" y="847" as="sourcePoint" />
            <mxPoint x="383.0799999999999" y="938.56" as="targetPoint" />
            <Array as="points">
              <mxPoint x="383" y="847" />
            </Array>
          </mxGeometry>
        </mxCell>
        <mxCell id="gl1NoAwUrYVEBVzrNiRo-15" value="" style="verticalLabelPosition=bottom;verticalAlign=top;html=1;shape=process;whiteSpace=wrap;rounded=1;size=0.14;arcSize=6;fillColor=#d5e8d4;strokeColor=#82b366;" vertex="1" parent="1">
          <mxGeometry x="318" y="802" width="140" height="45" as="geometry" />
        </mxCell>
        <mxCell id="gl1NoAwUrYVEBVzrNiRo-16" value="load_data" style="text;html=1;strokeColor=none;fillColor=none;align=center;verticalAlign=middle;whiteSpace=wrap;rounded=0;" vertex="1" parent="1">
          <mxGeometry x="358" y="810" width="60" height="30" as="geometry" />
        </mxCell>
      </root>
    </mxGraphModel>
  </diagram>
</mxfile>
